<svg xmlns="http://www.w3.org/2000/svg" baseProfile="tiny-ps" version="1.2" viewBox="0 0 627 210">
  <path fill="#1d1d1b" fill-rule="evenodd" d="M228.08 23.51h18.93l19.35 58.13h-12.87l-3.74-11.54h-24.66l-3.82 11.54h-12.96l19.77-58.13zm18.02 35.3-8.56-26.67-8.8 26.67h17.36z"/>
  <path fill="#1d1d1b" d="M272.68 23.51h19.93l19.6 46.18-.08-46.18h12.21v58.13h-19.36l-20.1-47.67v47.67h-12.2V23.51z"/>
  <path fill="#1d1d1b" fill-rule="evenodd" d="M334.97 23.42h22.01c5.42 0 10.4 1.29 14.94 3.87 4.54 2.57 8.16 6.09 10.84 10.54 2.69 4.46 4.03 9.38 4.03 14.75 0 5.37-1.31 10.28-3.94 14.74-2.63 4.46-6.23 7.97-10.8 10.54-4.57 2.58-9.59 3.87-15.07 3.87h-22.01V23.42zm22.01 46.68c3.48 0 6.56-.76 9.21-2.28 2.66-1.53 4.72-3.63 6.19-6.32 1.47-2.68 2.2-5.66 2.2-8.92 0-3.38-.73-6.4-2.2-9.06-1.47-2.65-3.54-4.73-6.23-6.23-2.68-1.49-5.74-2.24-9.17-2.24h-9.47V70.1h9.47zM424 82.31c-5.37 0-10.33-1.33-14.86-3.99-4.55-2.65-8.16-6.25-10.84-10.79-2.69-4.54-4.03-9.5-4.03-14.87 0-5.37 1.34-10.33 4.03-14.87 2.68-4.54 6.29-8.15 10.84-10.84 4.53-2.68 9.49-4.02 14.86-4.02 5.37 0 10.33 1.34 14.87 4.02 4.54 2.69 8.15 6.3 10.84 10.84 2.68 4.54 4.03 9.5 4.03 14.87 0 5.37-1.33 10.33-3.99 14.87-2.66 4.54-6.27 8.14-10.84 10.79-4.57 2.66-9.54 3.99-14.91 3.99zm0-11.63c3.27 0 6.22-.8 8.85-2.41 2.63-1.6 4.69-3.79 6.18-6.56 1.5-2.77 2.25-5.78 2.25-9.05 0-3.27-.75-6.28-2.25-9.05-1.49-2.77-3.55-4.97-6.18-6.61-2.63-1.63-5.58-2.45-8.85-2.45-3.21 0-6.15.82-8.8 2.45a17.214 17.214 0 0 0-6.23 6.61c-1.5 2.77-2.24 5.78-2.24 9.05 0 3.27.74 6.28 2.24 9.05 1.49 2.77 3.55 4.96 6.19 6.56 2.63 1.61 5.58 2.41 8.84 2.41zm38.04-47.17h25.66c3.77 0 7.21.91 10.35 2.74 3.12 1.83 5.61 4.29 7.47 7.39 1.85 3.1 2.78 6.42 2.78 9.97 0 2.49-.48 4.88-1.45 7.18s-2.34 4.33-4.11 6.1c-1.78 1.78-3.8 3.13-6.07 4.07l12.46 20.68h-13.29l-11.54-19.1h-9.72v19.1h-12.54V23.51zm25.66 28.24c2.38 0 4.4-.84 6.07-2.49 1.66-1.67 2.49-3.69 2.49-6.07 0-2.38-.83-4.39-2.49-6.02-1.67-1.63-3.69-2.45-6.07-2.45h-13.12v17.03h13.12zm30.15-28.24h25.66c3.77 0 7.22.91 10.35 2.74 3.12 1.83 5.61 4.29 7.47 7.39 1.86 3.1 2.78 6.42 2.78 9.97 0 2.49-.48 4.88-1.45 7.18s-2.34 4.33-4.11 6.1a18.38 18.38 0 0 1-6.06 4.07l12.45 20.68h-13.28l-11.55-19.1h-9.72v19.1h-12.54V23.51zm25.66 28.24c2.39 0 4.41-.84 6.07-2.49 1.66-1.67 2.49-3.69 2.49-6.07 0-2.38-.83-4.39-2.49-6.02-1.66-1.63-3.68-2.45-6.07-2.45h-13.12v17.03h13.12zm45.19-28.24h18.93l19.36 58.13h-12.88l-3.73-11.54h-24.67l-3.82 11.54h-12.96l19.77-58.13zm18.02 35.3-8.55-26.67-8.81 26.67h17.36z"/>
  <path fill="#417abe" fill-rule="evenodd" d="M208.54 100.22h19.74c2.93 0 5.53.67 7.8 2 2.27 1.34 4.04 3.15 5.31 5.45 1.27 2.29 1.9 4.75 1.9 7.37 0 2.19-.45 4.22-1.34 6.1-.9 1.88-2.12 3.46-3.67 4.75a14.59 14.59 0 0 1-5.28 2.79l10.88 17.44h-7.34l-10.29-16.72h-10.96v16.72h-6.75v-45.9zm19.28 23.28c2.57 0 4.72-.8 6.42-2.4 1.71-1.59 2.56-3.68 2.56-6.26 0-2.4-.78-4.42-2.33-6.06-1.55-1.64-3.62-2.46-6.19-2.46h-12.99v17.18h12.53z"/>
  <path fill="#417abe" d="M252.6 100.22h32.46v6.23h-25.7v13.64h23.08v6.1h-23.08v13.64h25.7v6.29H252.6v-45.9zm59.21 46.42c-3.19 0-6.33-.54-9.41-1.64-3.08-1.09-6-2.62-8.75-4.58v-7.48c2.62 2.1 5.56 3.85 8.82 5.25 3.26 1.39 6.43 2.09 9.54 2.09 2.05 0 3.81-.3 5.28-.91 1.46-.61 2.55-1.42 3.28-2.43.72-1 1.08-2.1 1.08-3.28 0-2.05-1.1-3.71-3.28-4.98-2.19-1.27-5.29-2.38-9.31-3.35-3.67-.87-6.65-1.86-8.92-2.98-2.27-1.11-3.96-2.46-5.05-4.03-1.09-1.57-1.64-3.45-1.64-5.64 0-2.58.74-4.85 2.23-6.82 1.49-1.97 3.5-3.48 6.03-4.56 2.54-1.07 5.34-1.6 8.4-1.6 3.23 0 6.23.45 8.98 1.34 2.75.9 5.38 2.09 7.87 3.57v7.09c-2.23-1.62-4.86-3.01-7.87-4.17-3.02-1.16-6.01-1.74-8.98-1.74-1.84 0-3.51.28-5.02.83-1.51.54-2.71 1.34-3.6 2.39-.9 1.05-1.35 2.23-1.35 3.54 0 1.22.42 2.26 1.24 3.11.83.85 2.03 1.58 3.58 2.17 1.55.59 3.64 1.19 6.26 1.8.35.09.71.18 1.08.26.38.09.76.18 1.15.27 5.38 1.22 9.21 3 11.51 5.34 2.29 2.34 3.44 5.06 3.44 8.16 0 2.71-.75 5.05-2.26 7.02-1.51 1.96-3.52 3.45-6.03 4.46-2.52 1-5.28 1.5-8.3 1.5zm25.51-46.42h32.45v6.23h-25.7v13.64h23.08v6.1h-23.08v13.64h25.7v6.29h-32.45v-45.9z"/>
  <path fill="#417abe" fill-rule="evenodd" d="M394.43 100.22h11.08l16.39 45.9h-7.01l-3.81-10.49h-22.42l-3.94 10.49h-7.01l16.72-45.9zm14.62 29.24-9.12-25.89-9.24 25.89h18.36zm20.85-29.24h19.74c2.93 0 5.53.67 7.8 2 2.27 1.34 4.04 3.15 5.31 5.45 1.27 2.29 1.91 4.75 1.91 7.37 0 2.19-.46 4.22-1.35 6.1-.9 1.88-2.12 3.46-3.67 4.75a14.59 14.59 0 0 1-5.28 2.79l10.88 17.44h-7.34l-10.29-16.72h-10.96v16.72h-6.75v-45.9zm19.28 23.28c2.58 0 4.72-.8 6.42-2.4 1.71-1.59 2.56-3.68 2.56-6.26 0-2.4-.77-4.42-2.33-6.06-1.55-1.64-3.61-2.46-6.19-2.46h-12.99v17.18h12.53z"/>
  <path fill="#417abe" d="M495.14 146.45c-4.24 0-8.14-1.05-11.7-3.15-3.56-2.1-6.37-4.94-8.43-8.52-2.05-3.59-3.08-7.5-3.08-11.74 0-4.29 1.03-8.22 3.08-11.8 2.06-3.59 4.87-6.43 8.43-8.53 3.56-2.09 7.46-3.14 11.7-3.14 4.68 0 8.88 1.28 12.6 3.87 3.71 2.57 6.48 6.01 8.32 10.29l-6.49 1.84c-1.36-2.93-3.28-5.25-5.77-6.96-2.49-1.7-5.38-2.55-8.66-2.55-3.1 0-5.91.74-8.42 2.23-2.52 1.48-4.48 3.53-5.9 6.13-1.43 2.6-2.14 5.47-2.14 8.62 0 3.06.71 5.89 2.14 8.49 1.42 2.6 3.38 4.66 5.9 6.16 2.51 1.51 5.32 2.27 8.42 2.27 3.28 0 6.15-.83 8.63-2.49 2.47-1.67 4.38-3.94 5.73-6.83l6.56 1.77c-1.84 4.2-4.61 7.59-8.32 10.17-3.72 2.58-7.92 3.87-12.6 3.87zm29.77-46.23h6.75v19.87h24.66v-19.87h6.69v45.9h-6.69v-19.93h-24.66v19.93h-6.75v-45.9zm70.95 25.18h-11.54v-5.96h11.54v-11.08h5.9v11.08h11.41v5.9h-11.41v11.02l-5.9.06V125.4zm-385.55 39.3h6.82v45.89h-6.82V164.7zm56.79 0v45.89h-11.81l-20.52-42.16v42.16h-6.62V164.7h12.06l20.26 41.5v-41.5h6.63zm49.83 0v45.89h-11.81l-20.52-42.16v42.16h-6.62V164.7h12.06l20.26 41.5v-41.5h6.63z"/>
  <path fill="#417abe" fill-rule="evenodd" d="M349.45 211.12c-4.24 0-8.15-1.05-11.71-3.15-3.56-2.1-6.37-4.95-8.42-8.56-2.06-3.6-3.08-7.52-3.08-11.76s1.02-8.17 3.08-11.77c2.05-3.61 4.86-6.46 8.42-8.56 3.56-2.1 7.47-3.15 11.71-3.15 4.19 0 8.07 1.05 11.64 3.15 3.56 2.1 6.38 4.95 8.45 8.56 2.08 3.6 3.12 7.53 3.12 11.77 0 4.24-1.03 8.16-3.08 11.76-2.06 3.61-4.86 6.46-8.43 8.56-3.56 2.1-7.46 3.15-11.7 3.15zm0-6.36c3.1 0 5.9-.77 8.39-2.29 2.49-1.54 4.46-3.61 5.9-6.24 1.45-2.62 2.17-5.48 2.17-8.58 0-3.11-.72-5.96-2.17-8.56-1.44-2.6-3.42-4.68-5.93-6.23-2.52-1.55-5.3-2.33-8.36-2.33-3.06 0-5.85.78-8.36 2.33s-4.5 3.63-5.94 6.23c-1.44 2.6-2.16 5.45-2.16 8.56 0 3.1.71 5.96 2.13 8.58 1.42 2.63 3.39 4.7 5.9 6.24 2.52 1.52 5.32 2.29 8.43 2.29z"/>
  <path fill="#417abe" d="m419.15 164.7-16.07 45.89h-11.27l-15.94-45.89h7.48l14.09 42.16 14.37-42.16h7.34z"/>
  <path fill="#417abe" fill-rule="evenodd" d="m446.23 164.7 16.39 45.89h-7.01l-3.81-10.49h-22.42l-3.94 10.49h-7.01l16.72-45.89h11.08zm-14.82 29.24h18.36l-9.11-25.9-9.25 25.9z"/>
  <path fill="#417abe" d="M500.46 164.7v6.29H485.7v39.6h-6.75v-39.6h-15.28v-6.29h36.79zm9.11 0h6.82v45.89h-6.82V164.7z"/>
  <path fill="#417abe" fill-rule="evenodd" d="M549.04 211.12c-4.24 0-8.14-1.05-11.7-3.15-3.57-2.1-6.38-4.95-8.43-8.56-2.06-3.6-3.08-7.52-3.08-11.76s1.02-8.17 3.08-11.77c2.05-3.61 4.86-6.46 8.43-8.56 3.56-2.1 7.46-3.15 11.7-3.15 4.2 0 8.08 1.05 11.64 3.15 3.56 2.1 6.38 4.95 8.46 8.56 2.07 3.6 3.11 7.53 3.11 11.77 0 4.24-1.02 8.16-3.08 11.76-2.05 3.61-4.86 6.46-8.42 8.56-3.57 2.1-7.47 3.15-11.71 3.15zm0-6.36c3.1 0 5.9-.77 8.39-2.29 2.49-1.54 4.46-3.61 5.91-6.24 1.44-2.62 2.16-5.48 2.16-8.58 0-3.11-.72-5.96-2.16-8.56-1.45-2.6-3.43-4.68-5.94-6.23-2.51-1.55-5.3-2.33-8.36-2.33-3.06 0-5.85.78-8.36 2.33a16.732 16.732 0 0 0-5.93 6.23c-1.45 2.6-2.17 5.45-2.17 8.56 0 3.1.71 5.96 2.13 8.58 1.42 2.63 3.39 4.7 5.91 6.24 2.51 1.52 5.31 2.29 8.42 2.29z"/>
  <path fill="#417abe" d="M620.06 164.7v45.89h-11.81l-20.52-42.16v42.16h-6.62V164.7h12.06l20.26 41.5v-41.5h6.63zM80.73 23.33v46.08L40.82 46.37.9 69.41V23.33L40.82.29l39.91 23.04z"/>
  <path fill="#f1cd00" d="m147.25 107.82-39.92 23.04-39.9-23.04 39.9-23.05V38.69l39.92 23.04v46.09z"/>
  <path fill="#d0333a" d="M40.82 77.09v46.09l39.91 23.04-39.91 23.05L.9 146.23v-46.09l39.92-23.05z"/>
</svg>
