<svg version="1.0" xmlns="http://www.w3.org/2000/svg" width="682.667" height="682.667" viewBox="0 0 512 512"><path fill="currentColor" d="M129 146.1C60.5 179.6 3.7 207.9 2.7 208.9s-2.1 3.6-2.4 5.8c-.4 3.2-.1 4.5 1.8 6.6 1.7 2 19.4 10.3 62.9 29.7l60.5 26.9.5 40.1.5 40.2 3.1 2.7c2.1 1.9 5.1 3.2 9.5 4 12.3 2.4 40.5 10 50.3 13.6 29.2 10.6 45 21.9 55.1 39.3 4.4 7.7 7.2 10.2 11.5 10.2 4.2 0 7.1-2.5 11.4-9.9 14.3-24.7 47.7-42.2 99.1-52 11.5-2.2 16.8-4.3 18.2-7 .4-.9 1-19.5 1.3-41.4l.5-39.8 19-8.5c10.5-4.7 19.8-8.6 20.8-8.7 1.5-.2 2.8 2.8 7.7 17.8 3.3 9.9 5.6 18.1 5.1 18.3-.4.1-2.6 1.6-4.9 3.3-4.8 3.5-9.8 10.7-11.3 16.3-1.5 5.5-.6 17.2 1.6 21.8l1.8 3.7-5.5 8.4c-9.7 14.6-10.2 16.4-5.8 22 2.7 3.4 7.8 4.4 11.7 2.3 1.7-.8 5.2-4.9 8.3-9.6 2.9-4.4 5.5-7.9 5.7-7.6.3.2-.1 4.7-.8 9.9-1.4 11-.6 14.2 4 17 4.2 2.4 7.6 2.1 11.2-1.1 2.9-2.6 3.2-3.6 4.9-14.7 1.4-10.2 1.9-11.6 2.7-9.5.6 1.4 2.3 5.6 3.8 9.4 4.3 10.5 11.5 13.7 17.6 7.7 4-4.1 3.8-7.8-1.4-21.4l-4.3-11.2 2.5-4.9c3.3-6.5 3.9-15.5 1.6-23.1-2.7-8.4-12.2-18.1-19.7-20-2.1-.5-3.2-3-9.4-22.4l-7-21.8 30-13.4c33.8-15 36.2-16.6 35.3-23.1-.3-2.2-1.4-4.9-2.4-5.9C506.6 206.2 258.7 85 255.9 85c-1.3 0-58.4 27.5-126.9 61.1zm212.6 2c47.2 23.2 97.4 47.7 111.4 54.6l25.5 12.4-46 20.4c-25.3 11.3-46 20.5-46.1 20.5-.1 0-.3-4.2-.6-9.3-.3-7.8-.9-10.3-3.3-15-9.9-19.7-41.6-34.7-86.3-40.8-12.5-1.8-20.6-2.2-40.2-2.2s-27.7.4-40.2 2.2c-44.7 6.1-76.4 21.1-86.3 40.8-2.4 4.7-3 7.2-3.3 15-.3 5.1-.5 9.3-.6 9.3-.1 0-20.8-9.2-46.1-20.4l-45.9-20.5 40-19.5c39.6-19.5 181.8-89.4 182-89.5.1-.1 38.8 18.9 86 42zm-50 62.4c14.5 1.9 28.8 4.9 37.8 7.9 17.7 6 32.6 15.3 35.5 22.4.7 1.7 1.1 7.2.9 14.4l-.3 11.7-4.7-2.9c-47.1-29.3-162.5-29.3-209.6 0l-4.7 2.9-.3-11.7c-.2-7.2.2-12.7.9-14.4 2.9-7.1 17.8-16.4 35.5-22.4 13-4.3 35.6-8.2 56.9-9.8 9.6-.7 41.3.4 52.1 1.9zm-7.1 52.6c13.8 1.3 34.1 5.2 43.8 8.4 11 3.6 23.5 9.7 29.3 14.2 8.2 6.6 8.4 7.4 8.4 35.5v24.4l-14.7 3.3c-39.7 8.9-68.6 22.5-87.3 41.2l-8 8-7.8-7.8c-17.7-18.2-42.3-29.8-85.1-40.4l-17.1-4.2v-24.4c0-28.3.2-29 8.4-35.6 10.1-8 28.3-15 49.4-19.1 26.8-5.1 52.1-6.2 80.7-3.5zm176.7 54.8c6.3 7 1 18.1-8.5 18.1-3.1 0-4.6-.7-7.3-3.4-2.8-2.8-3.4-4.2-3.4-7.6 0-3.5.6-4.8 3.5-7.7 3.3-3.3 3.9-3.5 8.2-3 3.7.4 5.4 1.2 7.5 3.6z"/><path fill="currentColor" d="M397 389.7c-7.8 3-9 14.2-1.9 17.8 10.3 5.4 19.9-7.5 11.6-15.4-2.4-2.2-7.2-3.4-9.7-2.4zM489 396.7c-7.8 3-9 14.2-1.9 17.8 10.3 5.4 19.9-7.5 11.6-15.4-2.4-2.2-7.2-3.4-9.7-2.4zM440 406.7c-7.8 3-9 14.2-1.9 17.8 10.3 5.4 19.9-7.5 11.6-15.4-2.4-2.2-7.2-3.4-9.7-2.4z"/></svg>
