<svg version="1.0" xmlns="http://www.w3.org/2000/svg" width="682.667" height="681.333" viewBox="0 0 512 511"><path fill="currentColor" d="M238.7 37.9c-1.4 1.7-3.6 6.3-4.9 10.3-11.2 33.1-72.2 209.5-72.8 210.1-.3.4-8.2-20.5-17.6-46.4-11.2-31.3-17.7-47.9-19.2-49.4-3.8-3.9-9.5-3.9-13.4 0C107.5 165.8.7 461.7.6 467.8c-.1 3.6.4 4.8 2.6 6.7 1.5 1.3 4.7 2.6 7 3 2.4.3 114.6.5 249.5.3l245.2-.3 2.8-2.1c1.6-1.2 3.2-3.6 3.7-5.6.8-3.4-2.3-10.8-51.4-121.2-38.1-85.8-52.9-118.2-54.8-119.6-3.6-2.9-8.6-2.6-12.1.7-2 2-8.5 15.5-22.2 46.5-10.6 24.1-19.4 43.6-19.6 43.5-.1-.2-21.9-63-48.3-139.6S254.5 40 254 38.9c-1.5-2.7-4.3-3.9-8.8-3.9-3.2 0-4.5.6-6.5 2.9zm26.3 93.3c10.3 29.9 18.6 54.5 18.5 54.6-.2.2-6.7-4.4-14.5-10.3-22.9-17.3-22.8-17.3-38 17.5-5.6 12.9-10.6 23.9-11 24.3-.6.6-17.9-7.1-19.9-8.9-.1-.1 9.9-30 22.5-66.3 12.5-36.3 23-65.9 23.2-65.6.2.2 8.9 24.8 19.2 54.7zm10.7 74.1 20 14.9 21.6 62.8c12 34.6 21.7 63.4 21.7 64 0 .7-10.9 25.7-24.2 55.6L290.7 457l-29.6-.2-29.5-.3-29.8-82.5c-16.3-45.4-29.8-83.1-29.8-83.9 0-1.7 20-60.2 21-61.4.4-.4 7.5 2.4 15.8 6.3 14.2 6.7 15.4 7.1 18.6 6 1.8-.6 4-1.8 4.9-2.8.8-.9 6.1-12.2 11.8-25 5.6-12.8 10.5-23.1 10.9-23 .3.2 9.6 7 20.7 15.1zM135.5 249c9.2 25.6 17 47.1 17.3 47.8.2.8-6.3-2.1-14.7-6.2-15.6-7.8-20.5-9.1-24.3-6.2-1 .7-6.5 7.5-12.3 15.2-5.8 7.6-10.9 14-11.3 14.1-.4.1-3-1.9-5.8-4.5l-5.1-4.7L97.6 254c10.1-27.8 18.6-51.4 19-52.4.5-1.5.8-1.6 1.4-.5.4.8 8.3 22.3 17.5 47.9zm277.9 44c7.5 16.7 13.4 30.5 13.2 30.7-.2.2-4.4-.7-9.4-2.2-5-1.4-10-2.5-11.1-2.5-4 0-7 2.4-10.2 8.2-6.2 10.9-5.4 10.6-13.4 4.7-3.8-2.8-7.9-5.7-8.9-6.5-1.9-1.3-1.4-2.6 11.9-32.4 7.5-17.1 13.9-30.9 14.1-30.7.2.1 6.4 14 13.8 30.7zm-250.5 32.6c.5.4 47.1 129.7 47.1 130.6 0 .5-30.4.8-67.5.8s-67.5-.3-67.5-.8c0-.4 4.3-13 9.5-28 5.2-15.1 9.5-28.6 9.5-30.2 0-1.6-1.1-4.2-2.5-5.8-4.7-5.7-13.2-4.3-16.3 2.6-.9 2.1-6.2 16.9-11.7 33l-10 29.2H39.3c-7.9 0-14.3-.4-14.3-.8 0-.5 10.4-29.6 23-64.8 12.7-35.1 23.3-64.5 23.5-65.2.3-.9 3 .9 7.9 5.1 8.1 7.1 11.9 8.6 16.3 6.5 1.6-.7 8-8.1 14.8-17l11.9-15.6 20.1 10c11 5.5 20.2 10.2 20.4 10.4zm262 18.9c6.8 1.9 12.7 3.8 13.1 4.2.5.6 45.9 102.4 47.7 107.1.4 1-2.6 1.2-14.3 1l-14.8-.3-10.7-24.5c-11.7-26.6-13.3-29-19.8-29-6.2 0-9.9 4.6-9.1 11.4.1 1.1 4.1 11 9 22l8.7 20.1-60.5.3c-33.3.1-60.7 0-60.9-.2-.3-.3 46-105.4 49.1-111.4 1.2-2.2 1.2-2.2 9.2 3.7 19 13.9 20.3 14.5 25.9 11.9 1.6-.7 4.3-4 6.7-8.2 6.2-10.7 6.8-11.6 7.6-11.6.4 0 6.3 1.6 13.1 3.5z"/><path fill="currentColor" d="M88.1 364.6c-2.5 2.1-3.1 3.3-3.1 6.6 0 5 1.3 7.4 5.2 9.4 9.9 5.1 18.8-7.7 10.9-15.7-3.9-3.8-8.7-3.9-13-.3zM407.9 378.5c-3.2 1.7-5.4 6.5-4.5 9.9.3 1.4 1.7 3.7 2.9 5.2 1.9 2.1 3.2 2.7 6.7 2.7 3.6 0 4.8-.6 7.2-3.2 7.7-8.6-2-20.2-12.3-14.6zM416 60.6c-24.4 4.7-42 25.5-42 49.4 0 13.7 4.7 24.8 15 35 12.6 12.6 29.4 17.6 45.5 13.5 18.3-4.7 31.9-17.6 37-35.3.9-3 1.7-9 1.7-13.2 0-26.6-20.5-48.1-47.2-49.5-4.1-.2-8.6-.1-10 .1zm19.9 22.5c5.6 2.4 10.4 6.9 13.9 12.9 2.4 4 2.7 5.5 2.7 14 0 7.8-.4 10.2-2.2 13.5-7.6 14.2-25.4 20.1-39.5 13.2-9.6-4.7-15.7-13.6-16.5-24.2-.6-7.5.8-12.9 5-19.1 8-12 23.2-16.3 36.6-10.3z"/></svg>
