<svg version="1.0" xmlns="http://www.w3.org/2000/svg" width="682.667" height="682.667" viewBox="0 0 512 512"><path fill="currentColor" d="M136 70.5c-29.5 5.4-56.7 23.8-74.9 50.7-4.9 7.4-11.8 22.4-14.5 31.9-8.2 28.8-4.6 63.5 9.9 95.4 1.9 4.2 3.5 7.8 3.5 8.1 0 .2-12.4.4-27.5.4H4.9l-2.4 2.5c-3.2 3.1-3.2 6.6-.1 10.2l2.4 2.8 32.5.3 32.5.3 3.7 5.7c24.1 36.4 66.4 79.3 118 119.8 25.8 20.3 56 40.4 65 43.4 3.2 1 4 .9 9.2-2.1 18.7-10.4 58.3-38.8 83.2-59.6C392.7 343.8 429.1 304 448 272l5.3-9h54.6l2-2.6c2.7-3.5 2.6-5.7-.3-9.1l-2.4-2.8-23.6-.3-23.5-.3 2.1-5.2c12.4-30.7 14.9-62.5 7.2-89.7-3.1-10.9-11.9-28.5-18.6-37.4-18.9-25.1-45.6-41.4-74.7-45.7-12.6-1.8-34-.7-46.9 2.6-17.7 4.3-43.8 15.4-61.1 25.8-5.2 3.1-9.7 5.7-10.1 5.7-.4 0-4.5-2.3-9.1-5.1-23.2-14-49.9-24.5-72.3-28.4-10.8-1.8-30.3-1.8-40.6 0zm39.1 16c21.5 3.7 49.2 15.3 72.7 30.4 4.6 3 9.1 5.1 10.6 5.1 1.7 0 6.1-2.2 11-5.4 16.9-11.2 46.1-24.2 64.3-28.8 7.5-1.9 11.4-2.3 26.3-2.2 16.1 0 18.2.3 26.4 2.8 27.6 8.4 49.6 27.2 62.1 53.1 13.8 28.3 13.3 60.7-1.3 96.5l-3.8 9.5-24.2.3-24.1.2-7.5-12.7c-13-22.4-14.1-24-17-24.7-4.7-1.2-7.7 1.4-16.5 14.2-4.7 6.7-8.8 11.9-9.2 11.5-.3-.5-6.6-20.2-13.8-43.8-7.3-23.7-14-43.8-14.9-44.7-.9-1-3.1-2-4.8-2.4-6.9-1.4-6.2-3.4-30.9 82-12.4 42.9-22.7 78.2-23 78.4-.2.3-.8-.4-1.2-1.4-10.3-27.5-48.8-124.3-50-125.6-1.9-2.1-7.1-2.4-9.6-.6-1 .7-10.4 18.4-21.1 39.3l-19.4 38-39.1.3-39.2.2-4.4-9.2c-21-44.8-20.1-85.1 2.8-119.3 6-9 21-23.2 30.5-28.9 8.7-5.2 24.1-10.9 33.2-12.5 8.7-1.4 26-1.2 35.1.4zM323 221.3c6.5 20.8 12.5 38.6 13.5 39.7 1.9 2.1 6.5 2.6 9.4 1.1 1-.6 5.9-7.1 11-14.5 5-7.4 9.6-13.8 10.1-14.1.5-.3 4.7 5.9 9.4 13.9 4.7 7.9 9.2 14.6 10.1 15 .9.3 12 .6 24.6.6h23l-2.5 4.2c-23 38.8-76.2 91.2-136.1 133.9-14.3 10.2-36.2 24.9-37.1 24.9-1.1 0-21.8-13.9-35.9-24-16.6-11.9-35.5-26.6-52-40.5-15.3-12.8-50.2-47.3-60.1-59.5-8.3-10-21.4-27.4-21.4-28.3 0-.3 16.6-.7 37-.9 33.1-.3 37.1-.5 38.6-2 1-.9 9.2-16.3 18.4-34.2l16.6-32.5 25.3 64.9c14 35.8 26.1 65.9 26.9 67.1 3.7 5.4 11 4.3 13.5-1.9.8-2.1 11.3-37.4 23.3-78.6 12-41.1 22-74.2 22.3-73.5.2.8 5.7 18.4 12.1 39.2z"/></svg>
