<svg version="1.0" xmlns="http://www.w3.org/2000/svg" width="682.667" height="682.667" viewBox="0 0 512 512"><path fill="currentColor" d="M181.7 25.4c-2.5 2.8-52.1 88-53.1 91.2-.4 1.2-.2 3.3.3 4.7.7 1.7 16.7 14 50.6 38.6 50 36.4 51.8 37.5 56.9 35.5.8-.3 5.7-6.2 10.8-13 5.1-6.8 9.5-12.4 9.8-12.4.6 0 28.3 48.1 27.8 48.4-.2.2-3.2 2-6.8 4.1-9.4 5.5-11 7.2-11 11.6 0 2.9.7 4.3 2.9 6.2l2.9 2.4 52.4.7c39.7.6 53 .4 55-.5 1.9-.8 4.8-5.1 10.1-14.8 41.3-74.9 43.8-79.6 43.2-82.6-.6-3.7-4.8-7.5-8.2-7.5-1.4 0-6.6 2.3-11.5 5.1-7.6 4.4-9.2 4.9-10.3 3.8-.7-.8-20.3-28.2-43.5-60.9s-43.1-60.3-44.2-61.3c-1.9-1.6-6.6-1.7-67-1.7h-64.9l-2.2 2.4zm169.4 78.1c36.9 52 45.3 63.3 48.1 64.5l3.5 1.5-15.6 28.5c-14.7 26.7-15.8 28.5-18.4 28.4-1.5 0-16.4-.1-33.1-.2l-30.5-.2.5-3.3c.4-2.8-5.7-14-51.1-92.5C226.2 81 203 40.6 203 40.4c0-.2 23.2-.3 51.7-.2l51.6.3 44.8 63zm-132.8-1.3c15.8 27.4 28.7 50.1 28.7 50.6 0 1.5-16.1 22.3-17 22-2.1-.7-80.9-58.4-81-59.2 0-.5 8.6-15.7 19.2-33.7 16.5-28.3 19.3-32.7 20.3-31.2.7 1 14.1 24.2 29.8 51.5zM94 184.1l-32.5.8-2.8 3.1c-5.3 5.9-3.3 10.1 8.3 16.8l8.8 5.2-37.6 60.7C16.8 305.4.5 332.8.2 334.5c-.3 2.5 5.7 12.8 38.3 65 21.3 34.1 39.6 62.8 40.7 63.7 1.9 1.7 6.3 1.8 62 1.8h59.9l2.4-2.5 2.5-2.4V331.3l-2.6-2.4c-2.4-2.3-3.3-2.4-18-2.8-8.5-.2-15.4-.6-15.2-1 .4-.9 26-45.5 26.3-45.9.2-.2 3.9 1.7 8.3 4.2 4.5 2.6 9.2 4.6 10.9 4.6 5.3 0 9.5-6.1 7.6-11.3-1.9-5.5-50.7-90.8-52.6-92.2-2.4-1.7-19.3-1.8-76.7-.4zm81.8 42.6c8.2 14.8 15.5 27.8 16.1 29.1 1 2 .9 2.3-1.4 3.2-1.3.5-4 3.3-5.8 6.2-1.8 2.9-25.1 43.2-51.7 89.5-26.6 46.4-48.6 84.3-48.9 84.3-.3-.1-15.1-23.4-32.9-51.9l-32.3-51.9L57 273.5c21-34 38.5-62.7 38.9-63.9.5-1.1.5-3.3 0-4.8-.4-1.6-.7-2.9-.6-3 .2-.1 21.6-.8 56.8-1.6l8.7-.2 15 26.7zM189 396v52h-44.6c-25.1 0-44.4-.4-44.2-.9.2-.5 13.5-23.9 29.7-52l29.4-51.1H189v52zM385.4 263.5c-28.5 17.3-52.9 32.6-54.1 34-3.5 3.9-2.9 7.4 2.6 15.7 2.7 4.2 5.4 8.5 6 9.7l1.2 2.1H293v-9.6c0-10.7-.6-12.6-4.9-14.4-4.1-1.7-7.5-.6-10.4 3.3-3.4 4.5-50.6 84.3-52.3 88.3-.8 1.8-1.1 4.1-.7 5.1 1.5 4.3 52.8 88.1 55.4 90.5 3.7 3.5 6.9 3.5 10.8.2l3.1-2.6V464h84c94.3 0 88.6.4 91.3-7.2.8-2.4 10.7-30.7 22.1-62.9 11.3-32.2 20.6-59.5 20.6-60.7 0-1.2-4.7-9-10.4-17.4-36.4-53.6-55.9-81.4-57.8-82.5-1.3-.7-3.2-1.2-4.4-1.3-1.1 0-25.4 14.2-54 31.5zm69.2 14.2c9.3 13.6 20.4 29.8 24.6 36l7.7 11.3H362.3l-6.3-9.5c-3.5-5.3-6-9.8-5.7-10.2 1.4-1.3 85.3-52.1 86.3-52.2.6-.1 8.7 11 18 24.6zm-67 64.5c101.5-.5 103.6-.5 103 1.4-.3 1-8.6 24.6-18.4 52.4l-17.7 50.5-86.8.5-86.9.5-1.8 2.2c-1.7 2.2-1.9 2-18.5-25.5-9.3-15.2-16.8-28.2-16.8-28.7 0-.8 26.6-46 31.8-54.2 1.4-2.1 1.5-2.1 5-.3 3.3 1.7 8.7 1.8 107.1 1.2z"/></svg>
